<svg xmlns="http://www.w3.org/2000/svg" width="100%" height="100%" fill="none" preserveAspectRatio="none" viewBox="0 0 24 24" color="#45c3d2"><path fill="#45C3D3" d="M12 24c-3.067 0-5.739-1.017-8.017-3.05C1.706 18.917.4 16.378.067 13.333H2.8c.311 2.311 1.339 4.223 3.083 5.734 1.745 1.51 3.784 2.266 6.117 2.266 2.6 0 4.806-.905 6.617-2.716 1.81-1.811 2.716-4.017 2.716-6.617 0-2.6-.905-4.806-2.716-6.617C16.806 3.573 14.6 2.667 12 2.667a9 9 0 0 0-4.3 1.066 9.909 9.909 0 0 0-3.367 2.934H8v2.666H0v-8h2.667v3.134a11.642 11.642 0 0 1 4.15-3.3A11.908 11.908 0 0 1 12 0c1.667 0 3.228.317 4.683.95a12.196 12.196 0 0 1 3.8 2.567 12.196 12.196 0 0 1 2.567 3.8c.633 1.455.95 3.016.95 4.683 0 1.667-.317 3.228-.95 4.683a12.195 12.195 0 0 1-2.567 3.8 12.195 12.195 0 0 1-3.8 2.567c-1.455.633-3.016.95-4.683.95m3.733-6.4-5.066-5.067v-7.2h2.666v6.134l4.267 4.266z"></path></svg>